<?xml version="1.0" encoding="utf-8"?>
<!-- Generator: Adobe Illustrator 15.1.0, SVG Export Plug-In . SVG Version: 6.00 Build 0)  -->
<!DOCTYPE svg PUBLIC "-//W3C//DTD SVG 1.1//EN" "http://www.w3.org/Graphics/SVG/1.1/DTD/svg11.dtd">
<svg version="1.1" id="Capa_1" xmlns="http://www.w3.org/2000/svg" xmlns:xlink="http://www.w3.org/1999/xlink" x="0px" y="0px"
	 width="1104.918px" height="245.902px" viewBox="0 0 1104.918 245.902" enable-background="new 0 0 1104.918 245.902"
	 xml:space="preserve">
<g>
	<defs>
		<rect id="SVGID_1_" x="-636.502" y="-625.79" width="2000" height="1500"/>
	</defs>
	<clipPath id="SVGID_2_">
		<use xlink:href="#SVGID_1_"  overflow="visible"/>
	</clipPath>
	<rect x="-635.827" y="-625.79" clip-path="url(#SVGID_2_)" width="1999.325" height="1499.589"/>
	<g clip-path="url(#SVGID_2_)">
		<defs>
			<rect id="SVGID_3_" x="-636.502" y="-625.79" width="2000" height="1500"/>
		</defs>
		<clipPath id="SVGID_4_">
			<use xlink:href="#SVGID_3_"  overflow="visible"/>
		</clipPath>
		<path clip-path="url(#SVGID_4_)" fill="#253B80" d="M-78.575,237.769h-262.75c-16.505,0-29.884-13.379-29.884-29.884V40.536
			c0-16.505,13.379-29.884,29.884-29.884h262.75c16.504,0,29.884,13.379,29.884,29.884v167.349
			C-48.691,224.39-62.071,237.769-78.575,237.769"/>
		<path clip-path="url(#SVGID_4_)" fill="#0066B2" d="M303.747,237.769H40.997c-16.505,0-29.884-13.379-29.884-29.884V40.536
			c0-16.505,13.379-29.884,29.884-29.884h262.75c16.504,0,29.884,13.379,29.884,29.884v167.349
			C333.631,224.39,320.251,237.769,303.747,237.769"/>
		<path clip-path="url(#SVGID_4_)" fill="#36495D" d="M686.068,237.769h-262.75c-16.505,0-29.884-13.379-29.884-29.884V40.536
			c0-16.505,13.379-29.884,29.884-29.884h262.75c16.504,0,29.884,13.379,29.884,29.884v167.349
			C715.952,224.39,702.572,237.769,686.068,237.769"/>
		<path clip-path="url(#SVGID_4_)" fill="#006FCF" d="M1068.391,237.769h-262.75c-16.506,0-29.885-13.379-29.885-29.884V40.536
			c0-16.505,13.379-29.884,29.885-29.884h262.75c16.504,0,29.884,13.379,29.884,29.884v167.349
			C1098.274,224.39,1084.895,237.769,1068.391,237.769"/>
		<path clip-path="url(#SVGID_4_)" fill="#FFFFFF" d="M-293.765,110.571c-0.961,6.304-5.778,6.304-10.436,6.304h-2.651l1.86-11.774
			c0.11-0.712,0.727-1.236,1.446-1.236h1.215c3.173,0,6.166,0,7.713,1.809C-293.696,106.753-293.413,108.356-293.765,110.571
			 M-295.792,94.115h-17.571c-1.202,0-2.225,0.874-2.412,2.061l-7.107,45.056c-0.141,0.888,0.548,1.689,1.449,1.689h8.389
			c1.202,0,2.225-0.872,2.412-2.063l1.917-12.152c0.185-1.189,1.21-2.063,2.41-2.063h5.562c11.574,0,18.254-5.6,19.999-16.699
			c0.786-4.856,0.033-8.671-2.241-11.343C-285.482,95.667-289.911,94.115-295.792,94.115"/>
		<path clip-path="url(#SVGID_4_)" fill="#FFFFFF" d="M-254.998,126.744c-0.812,4.807-4.627,8.034-9.493,8.034
			c-2.444,0-4.396-0.784-5.65-2.27c-1.244-1.475-1.716-3.573-1.321-5.911c0.758-4.766,4.638-8.099,9.429-8.099
			c2.39,0,4.332,0.794,5.611,2.292C-255.14,122.304-254.631,124.416-254.998,126.744 M-243.27,110.368h-8.414
			c-0.717,0-1.336,0.524-1.447,1.236l-0.372,2.353l-0.588-0.853c-1.822-2.644-5.884-3.527-9.938-3.527
			c-9.298,0-17.239,7.042-18.786,16.92c-0.804,4.928,0.339,9.64,3.134,12.926c2.565,3.021,6.233,4.28,10.598,4.28
			c7.492,0,11.647-4.817,11.647-4.817l-0.376,2.339c-0.141,0.894,0.548,1.695,1.444,1.695h7.579c1.205,0,2.223-0.874,2.413-2.063
			l4.547-28.799C-241.685,111.172-242.371,110.368-243.27,110.368"/>
		<path clip-path="url(#SVGID_4_)" fill="#FFFFFF" d="M-198.458,110.368h-8.455c-0.807,0-1.565,0.401-2.022,1.071l-11.662,17.178
			l-4.943-16.507c-0.311-1.033-1.264-1.742-2.343-1.742h-8.309c-1.009,0-1.711,0.986-1.39,1.937l9.314,27.331l-8.756,12.36
			c-0.689,0.975,0.005,2.313,1.195,2.313h8.444c0.802,0,1.552-0.392,2.007-1.049l28.122-40.594
			C-196.583,111.696-197.274,110.368-198.458,110.368"/>
		<path clip-path="url(#SVGID_4_)" fill="#FFFFFF" d="M-168.438,110.571c-0.958,6.304-5.775,6.304-10.436,6.304h-2.649l1.863-11.774
			c0.11-0.712,0.722-1.236,1.444-1.236H-177c3.17,0,6.166,0,7.713,1.809C-168.365,106.753-168.085,108.356-168.438,110.571
			 M-170.464,94.115h-17.573c-1.2,0-2.223,0.874-2.41,2.061l-7.107,45.056c-0.141,0.888,0.548,1.689,1.444,1.689h9.018
			c0.838,0,1.555-0.61,1.686-1.443l2.016-12.771c0.185-1.189,1.211-2.063,2.41-2.063h5.56c11.577,0,18.254-5.6,20.001-16.699
			c0.789-4.856,0.031-8.671-2.243-11.343C-160.156,95.667-164.583,94.115-170.464,94.115"/>
		<path clip-path="url(#SVGID_4_)" fill="#FFFFFF" d="M-129.673,126.744c-0.807,4.807-4.627,8.034-9.493,8.034
			c-2.439,0-4.396-0.784-5.65-2.27c-1.244-1.475-1.711-3.573-1.321-5.911c0.763-4.766,4.638-8.099,9.429-8.099
			c2.39,0,4.332,0.794,5.611,2.292C-129.809,122.304-129.301,124.416-129.673,126.744 M-117.945,110.368h-8.409
			c-0.722,0-1.336,0.524-1.444,1.236l-0.372,2.353l-0.591-0.853c-1.822-2.644-5.881-3.527-9.935-3.527
			c-9.298,0-17.237,7.042-18.784,16.92c-0.801,4.928,0.337,9.64,3.132,12.926c2.569,3.021,6.233,4.28,10.598,4.28
			c7.492,0,11.646-4.817,11.646-4.817l-0.375,2.339c-0.141,0.894,0.547,1.695,1.449,1.695h7.577c1.199,0,2.222-0.874,2.41-2.063
			l4.55-28.799C-116.355,111.172-117.043,110.368-117.945,110.368"/>
		<path clip-path="url(#SVGID_4_)" fill="#FFFFFF" d="M-108.025,95.351l-7.212,45.881c-0.141,0.888,0.548,1.689,1.444,1.689h7.25
			c1.205,0,2.228-0.873,2.413-2.063l7.111-45.053c0.142-0.889-0.547-1.693-1.443-1.693h-8.119
			C-107.298,94.115-107.915,94.639-108.025,95.351"/>
		<polygon clip-path="url(#SVGID_4_)" fill="#FFFFFF" points="158.68,159.79 141.883,159.79 152.381,95.267 169.18,95.267 		"/>
		<path clip-path="url(#SVGID_4_)" fill="#FFFFFF" d="M127.75,95.267l-16.015,44.378l-1.895-9.556l0.002,0.003l-5.653-29.014
			c0,0-0.683-5.811-7.969-5.811H69.746l-0.31,1.092c0,0,8.099,1.684,17.571,7.377l14.595,56.055h17.502l26.726-64.523H127.75z"/>
		<path clip-path="url(#SVGID_4_)" fill="#FFFFFF" d="M259.878,159.791h15.424l-13.448-64.523h-13.506
			c-6.236,0-7.755,4.808-7.755,4.808l-25.051,59.715h17.509l3.502-9.584h21.355L259.878,159.791z M241.394,136.965l8.827-24.146
			l4.965,24.146H241.394z"/>
		<path clip-path="url(#SVGID_4_)" fill="#FFFFFF" d="M216.855,110.783l2.397-13.858c0,0-7.398-2.813-15.109-2.813
			c-8.336,0-28.132,3.646-28.132,21.36c0,16.671,23.234,16.878,23.234,25.631s-20.839,7.188-27.716,1.667l-2.499,14.485
			c0,0,7.5,3.645,18.963,3.645c11.461,0,28.758-5.938,28.758-22.089c0-16.776-23.444-18.338-23.444-25.631
			C193.307,105.885,209.667,106.822,216.855,110.783"/>
		<path clip-path="url(#SVGID_4_)" fill="#F9A533" d="M109.841,130.092l-5.653-29.014c0,0-0.683-5.811-7.969-5.811H69.747
			l-0.311,1.092c0,0,12.726,2.638,24.934,12.518C106.035,118.321,109.841,130.092,109.841,130.092"/>
		<rect x="527.597" y="75.525" clip-path="url(#SVGID_4_)" fill="#F16522" width="54.185" height="97.369"/>
		<path clip-path="url(#SVGID_4_)" fill="#E41B24" d="M531.039,124.21c0-19.753,9.25-37.345,23.652-48.684
			c-10.535-8.294-23.824-13.241-38.271-13.241c-34.198,0-61.921,27.726-61.921,61.925s27.723,61.925,61.921,61.925
			c14.446,0,27.735-4.947,38.271-13.24C540.289,161.555,531.039,143.963,531.039,124.21"/>
		<path clip-path="url(#SVGID_4_)" fill="#F89E1C" d="M654.882,124.207c0,34.202-27.723,61.925-61.921,61.925
			c-14.446,0-27.735-4.948-38.267-13.241c14.402-11.336,23.648-28.931,23.648-48.684c0-19.754-9.246-37.345-23.648-48.685
			c10.531-8.289,23.82-13.237,38.267-13.237C627.159,62.285,654.882,90.008,654.882,124.207 M648.974,162.58v-1.992h0.805v-0.405
			h-2.049v0.405h0.804v1.992H648.974z M652.948,162.58v-2.4h-0.629l-0.72,1.652l-0.72-1.652h-0.63v2.4h0.44v-1.813l0.677,1.564h0.46
			l0.678-1.568v1.816H652.948z"/>
		<defs>
			<filter id="Adobe_OpacityMaskFilter" filterUnits="userSpaceOnUse" x="775.756" y="64.492" width="322.297" height="131.975">
				<feColorMatrix  type="matrix" values="1 0 0 0 0  0 1 0 0 0  0 0 1 0 0  0 0 0 1 0"/>
			</filter>
		</defs>
		<mask maskUnits="userSpaceOnUse" x="775.756" y="64.492" width="322.297" height="131.975" id="SVGID_5_">
			<g filter="url(#Adobe_OpacityMaskFilter)">
				<rect x="775.756" y="64.492" clip-path="url(#SVGID_4_)" width="322.297" height="131.975"/>
				<g enable-background="new    ">
					<rect x="775.756" y="64.495" clip-path="url(#SVGID_4_)" fill="#FFFFFF" width="322.299" height="131.971"/>
				</g>
			</g>
		</mask>
		<g clip-path="url(#SVGID_4_)" mask="url(#SVGID_5_)">
			<g>
				<defs>
					<rect id="SVGID_6_" x="775.758" y="64.492" width="322.29" height="131.975"/>
				</defs>
				<clipPath id="SVGID_7_">
					<use xlink:href="#SVGID_6_"  overflow="visible"/>
				</clipPath>
				<path clip-path="url(#SVGID_7_)" fill="#F7F7F7" d="M1058.567,120.795h24.192V64.492h-25.821v9.004l-5.746-9.004h-22.511v11.385
					l-5.044-11.385h-37.212c-1.787,0-3.532,0.131-5.223,0.395c-1.438,0.226-2.839,0.548-4.188,0.97
					c-1.062,0.331-2.092,0.723-3.085,1.177c-1.165,0.536-2.281,1.154-3.339,1.86v-1.936v-2.466H849.146l-3.308,9.818l-3.365-9.818
					h-28.257v11.505l-5.101-11.505h-23.052l-10.308,24.083v27.209v5.012h16.326l3.038-8.082h5.75l3.094,8.082h125.622v-8.19
					l6.291,8.19h34.714v-1.802v-2.293c0.896,0.58,1.827,1.086,2.773,1.529c0.949,0.439,1.919,0.814,2.9,1.13
					c1.213,0.396,2.446,0.695,3.673,0.917c2.004,0.363,3.998,0.519,5.894,0.519h20.773l3.038-8.082h5.749l3.091,8.082h34.824v-8.354
					L1058.567,120.795z M1098.053,192.999v-52.83h-2.821H898.12l-5.099,7.214l-5.041-7.214h-57.497v56.298h57.277l4.991-7.322
					l5.152,7.322h35.853V184.32h-0.378c4.459,0,8.51-0.807,12.098-2.139v14.285h25.003v-8.187l6.292,8.187h108.48
					c3.122,0,6.049-0.529,8.674-1.481C1095.401,194.449,1096.784,193.781,1098.053,192.999"/>
			</g>
		</g>
		<defs>
			<filter id="Adobe_OpacityMaskFilter_1_" filterUnits="userSpaceOnUse" x="839.326" y="149.333" width="258.952" height="37.971">
				<feColorMatrix  type="matrix" values="1 0 0 0 0  0 1 0 0 0  0 0 1 0 0  0 0 0 1 0"/>
			</filter>
		</defs>
		<mask maskUnits="userSpaceOnUse" x="839.326" y="149.333" width="258.952" height="37.971" id="SVGID_8_">
			<g filter="url(#Adobe_OpacityMaskFilter_1_)">
				<rect x="839.326" y="149.333" clip-path="url(#SVGID_4_)" width="258.948" height="37.971"/>
				<g enable-background="new    ">
					<rect x="839.326" y="149.332" clip-path="url(#SVGID_4_)" fill="#FFFFFF" width="258.949" height="37.972"/>
				</g>
			</g>
		</mask>
		<g clip-path="url(#SVGID_4_)" mask="url(#SVGID_8_)">
			<g>
				<defs>
					<rect id="SVGID_9_" x="839.328" y="149.333" width="258.95" height="37.971"/>
				</defs>
				<clipPath id="SVGID_10_">
					<use xlink:href="#SVGID_9_"  overflow="visible"/>
				</clipPath>
				<path clip-path="url(#SVGID_10_)" fill="#006FCF" d="M1085.474,179.708H1066v7.595h19.198c8.196,0,13.076-4.99,13.076-12.098
					c0-6.781-4.394-10.738-11.771-10.738h-8.786c-2.174,0-3.688-1.412-3.688-3.635c0-2.279,1.515-3.796,3.688-3.796h16.484
					l3.369-7.704h-19.584c-8.193,0-13.073,4.992-13.073,11.825c0,6.998,4.613,11.011,11.828,11.011h8.731
					c2.168,0,3.741,1.409,3.741,3.691C1089.215,178.188,1087.642,179.708,1085.474,179.708 M1049.349,179.708h-19.47v7.595h19.197
					c8.193,0,13.076-4.99,13.076-12.098c0-6.781-4.394-10.738-11.773-10.738h-8.786c-2.171,0-3.688-1.412-3.688-3.635
					c0-2.279,1.518-3.796,3.688-3.796h16.487l3.366-7.704h-19.585c-8.189,0-13.072,4.992-13.072,11.825
					c0,6.998,4.613,11.011,11.828,11.011h8.731c2.168,0,3.741,1.409,3.741,3.691C1053.09,178.188,1051.517,179.708,1049.349,179.708
					 M1024.346,157.037v-7.704h-30.375v37.971h30.375v-7.65h-21.264v-7.646h20.774v-7.595h-20.774v-7.376H1024.346z
					 M973.467,157.089c3.254,0,4.99,2.115,4.99,4.722c0,2.602-1.736,4.66-4.99,4.66H962.78v-9.382H973.467z M962.78,173.632h4.286
					l11.335,13.671h11.336l-12.636-13.995c6.456-1.195,10.305-5.858,10.305-11.934c0-7.105-5.044-12.042-13.126-12.042h-20.612
					v37.971h9.112V173.632z M939.564,162.078c0,2.554-1.626,4.666-4.827,4.666h-10.903v-9.326h10.903
					C937.938,157.417,939.564,159.476,939.564,162.078 M914.723,149.333v37.971h9.111V174.77h11.445
					c8.301,0,13.45-5.423,13.45-12.745c0-7.536-5.041-12.692-13.125-12.692H914.723z M901.324,187.303h11.391l-15.242-19.147
					l15.135-18.823h-11.063l-9.333,12.042l-9.272-12.042h-11.392l15.188,18.984L871.6,187.303h11.065l9.33-12.206L901.324,187.303z
					 M869.701,157.037v-7.704h-30.375v37.971h30.375v-7.65h-21.26v-7.646h20.773v-7.595h-20.773v-7.376H869.701z"/>
			</g>
		</g>
		<path clip-path="url(#SVGID_4_)" fill="#006FCF" d="M1045.93,88.901l-0.108-3.146l1.898,3.146l14.534,22.727h10.636V73.657h-8.896
			v21.969l0.108,2.821l-1.681-2.821l-14.217-21.969h-11.169v37.971h8.894V88.901z M1009.59,87.817l2.767-7.106l2.762,7.106
			l3.368,8.407h-12.206L1009.59,87.817z M1024.667,111.628h10.249l-16.213-37.971h-11.992l-16.268,37.971h9.707l3.201-8.137h18.061
			L1024.667,111.628z M984.91,111.628h0.489l3.74-8.082h-2.766c-6.238,0-9.927-3.904-9.927-10.629v-0.542
			c0-6.023,3.307-10.525,9.819-10.525h9.871v-8.193h-10.63c-11.717,0-18.117,7.868-18.117,18.662v0.65
			C967.391,104.252,973.954,111.575,984.91,111.628 M952.528,111.628h9.112V94.917v-21.26h-9.112V94.7V111.628z M933.381,81.417
			c3.254,0,4.99,2.115,4.99,4.719s-1.736,4.663-4.99,4.663h-10.687v-9.382H933.381z M922.694,97.961h4.286l11.338,13.667h11.336
			l-12.639-13.995c6.456-1.193,10.308-5.859,10.308-11.931c0-7.106-5.047-12.045-13.129-12.045h-20.612v37.971h9.112V97.961z
			 M906.912,81.361v-7.704h-30.375v37.971h30.375v-7.756H885.65v-7.54h20.773V88.74H885.65v-7.379H906.912z M831.355,85.702
			l-0.22-10.252l10.524,36.178h8.245l10.522-35.961l-0.218,9.979v25.982h8.841V73.657h-16.056l-7.214,26.905l-7.267-26.905h-16.002
			v37.971h8.843V85.702z M795.066,87.817l2.768-7.106l2.766,7.106l3.362,8.407H791.76L795.066,87.817z M810.146,111.628h10.252
			l-16.219-37.971h-11.986l-16.274,37.971h9.71l3.202-8.137h18.062L810.146,111.628z"/>
	</g>
</g>
</svg>
